# xmcd CD database file
# Copyright 1993-1996 (C) Ti Kan
#
# Track frame offsets:
#    150
#    11242
#    23020
#    34752
#    50907
#    63060
#    75067
#    87157
#
# Disc length: 1341 seconds
#
# Revision: 0
# Processed by: cddbd v1.4b41PL1 Copyright (c) Steve Scherf et al.
# Submitted via: MyCDplayer 2.1.9  (wjohn@fix.net)
#
DISCID=52053b08
DTITLE=Various Artidt - Classic Country * Volume 1
DYEAR=1900
DGENRE=
TTITLE0=Hello Darlin'/Conway Twitty
TTITLE1=Workin' Man Blues/Merle Haggard
TTITLE2=She Thinks I Still Care/George Jones
TTITLE3=Always On My Mind/Willie Nelson
TTITLE4=Jolene/Dolly Parton
TTITLE5=Ring Of Fire/Johnny Cash
TTITLE6=Galveston/Glen Campbell
TTITLE7=Coal Miner's Daughter/Loretta Lynn
EXTD=
EXTT0=
EXTT1=
EXTT2=
EXTT3=
EXTT4=
EXTT5=
EXTT6=
EXTT7=
PLAYORDER=
